<?xml version="1.0" encoding="UTF-8" standalone="no"?>
<!-- Created with Inkscape (http://www.inkscape.org/) -->

<svg
   width="512"
   height="512"
   viewBox="0 0 135.46666 135.46667"
   version="1.1"
   id="svg1"
   inkscape:version="1.3.2 (091e20e, 2023-11-25, custom)"
   sodipodi:docname="icon.svg"
   xml:space="preserve"
   inkscape:export-filename="icon192.png"
   inkscape:export-xdpi="36"
   inkscape:export-ydpi="36"
   xmlns:inkscape="http://www.inkscape.org/namespaces/inkscape"
   xmlns:sodipodi="http://sodipodi.sourceforge.net/DTD/sodipodi-0.dtd"
   xmlns="http://www.w3.org/2000/svg"
   xmlns:svg="http://www.w3.org/2000/svg"><sodipodi:namedview
     id="namedview1"
     pagecolor="#ffffff"
     bordercolor="#000000"
     borderopacity="0.25"
     inkscape:showpageshadow="2"
     inkscape:pageopacity="0.0"
     inkscape:pagecheckerboard="0"
     inkscape:deskcolor="#d1d1d1"
     inkscape:document-units="px"
     inkscape:zoom="0.70110129"
     inkscape:cx="248.18097"
     inkscape:cy="324.48949"
     inkscape:window-width="1920"
     inkscape:window-height="1001"
     inkscape:window-x="-9"
     inkscape:window-y="-9"
     inkscape:window-maximized="1"
     inkscape:current-layer="layer1" /><defs
     id="defs1" /><g
     inkscape:label="Camada 1"
     inkscape:groupmode="layer"
     id="layer1"><rect
       style="fill:#004d99;stroke-width:0.132292;stroke-linejoin:round;stroke-dasharray:0.396875, 0.132292;fill-opacity:1"
       id="rect1"
       width="117.94756"
       height="119.54866"
       x="8.759551"
       y="7.9590025"
       rx="21.347977"
       ry="21.347977" /><text
       xml:space="preserve"
       style="font-weight:bold;font-size:28.6251px;line-height:8.8;font-family:'Malgun Gothic';-inkscape-font-specification:'Malgun Gothic, Bold';text-decoration-color:#000000;fill:#ffffff;fill-opacity:1;stroke-width:0.0766744;stroke-linejoin:round;stroke-dasharray:0.230023, 0.0766744"
       x="20.651474"
       y="36.701866"
       id="text2"><tspan
         sodipodi:role="line"
         id="tspan2"
         style="stroke-width:0.0766744"
         x="20.651474"
         y="36.701866">BINGO</tspan></text><path
       id="rect2-75-6"
       style="fill:#ffffff;stroke-width:0.119292;stroke-linejoin:round;stroke-dasharray:0.357876, 0.119292;fill-opacity:0.69306928"
       d="M 95.115561,88.561597 H 111.5734 c 3.5949,0 6.489,2.894089 6.489,6.488999 V 111.5084 c 0,3.5949 -2.8941,6.489 -6.489,6.489 H 95.115561 c -3.594906,0 -6.489,-2.8941 -6.489,-6.489 V 95.050596 c 0,-3.59491 2.894094,-6.488999 6.489,-6.488999 z m -35.611145,0 h 16.457831 c 3.594906,0 6.489,2.894089 6.489,6.488999 V 111.5084 c 0,3.5949 -2.894094,6.489 -6.489,6.489 H 59.504416 c -3.594906,0 -6.489,-2.8941 -6.489,-6.489 V 95.050596 c 0,-3.59491 2.894094,-6.488999 6.489,-6.488999 z m -35.611147,0 h 16.457832 c 3.594905,0 6.488999,2.894089 6.488999,6.488999 V 111.5084 c 0,3.5949 -2.894094,6.489 -6.488999,6.489 H 23.893269 c -3.594906,0 -6.489,-2.8941 -6.489,-6.489 V 95.050596 c 0,-3.59491 2.894094,-6.488999 6.489,-6.488999 z M 95.115561,53.540421 H 111.5734 c 3.5949,0 6.489,2.894094 6.489,6.489 v 16.457831 c 0,3.594906 -2.8941,6.489 -6.489,6.489 H 95.115561 c -3.594906,0 -6.489,-2.894094 -6.489,-6.489 V 60.029421 c 0,-3.594906 2.894094,-6.489 6.489,-6.489 z m -35.611145,0 h 16.457831 c 3.594906,0 6.489,2.894094 6.489,6.489 v 16.457831 c 0,3.594906 -2.894094,6.489 -6.489,6.489 H 59.504416 c -3.594906,0 -6.489,-2.894094 -6.489,-6.489 V 60.029421 c 0,-3.594906 2.894094,-6.489 6.489,-6.489 z m -35.611147,0 h 16.457832 c 3.594905,0 6.488999,2.894094 6.488999,6.489 v 16.457831 c 0,3.594906 -2.894094,6.489 -6.488999,6.489 H 23.893269 c -3.594906,0 -6.489,-2.894094 -6.489,-6.489 V 60.029421 c 0,-3.594906 2.894094,-6.489 6.489,-6.489 z" /><rect
       style="fill:#ffffff;fill-opacity:1;stroke-width:0.128412;stroke-linejoin:round;stroke-dasharray:0.385234, 0.128412"
       id="rect2"
       width="92.270012"
       height="3.2077508"
       x="21.598326"
       y="40.564453" /></g></svg>
