<?xml version="1.0" encoding="UTF-8" standalone="no"?>
<!-- Created with Inkscape (http://www.inkscape.org/) -->

<svg
   width="512"
   height="512"
   viewBox="0 0 135.46666 135.46667"
   version="1.1"
   id="svg1"
   inkscape:version="1.3.2 (091e20e, 2023-11-25, custom)"
   sodipodi:docname="icon.svg"
   xml:space="preserve"
   inkscape:export-filename="icon512.png"
   inkscape:export-xdpi="96"
   inkscape:export-ydpi="96"
   xmlns:inkscape="http://www.inkscape.org/namespaces/inkscape"
   xmlns:sodipodi="http://sodipodi.sourceforge.net/DTD/sodipodi-0.dtd"
   xmlns="http://www.w3.org/2000/svg"
   xmlns:svg="http://www.w3.org/2000/svg"><sodipodi:namedview
     id="namedview1"
     pagecolor="#ffffff"
     bordercolor="#000000"
     borderopacity="0.25"
     inkscape:showpageshadow="2"
     inkscape:pageopacity="0.0"
     inkscape:pagecheckerboard="0"
     inkscape:deskcolor="#d1d1d1"
     inkscape:document-units="px"
     inkscape:zoom="1"
     inkscape:cx="237"
     inkscape:cy="317.5"
     inkscape:window-width="1920"
     inkscape:window-height="1001"
     inkscape:window-x="-9"
     inkscape:window-y="-9"
     inkscape:window-maximized="1"
     inkscape:current-layer="g1"
     inkscape:export-bgcolor="#ffffffff" /><defs
     id="defs1" /><g
     inkscape:label="Camada 1"
     inkscape:groupmode="layer"
     id="layer1"><g
       id="g1"
       transform="matrix(0.93737946,0,0,0.93737946,4.250212,4.2499235)"
       style="stroke-width:1.06681"><path
         style="fill:#34abed;stroke-width:1.06681;stroke:none"
         d="m 70.114582,124.7379 c 0,-9.05187 -0.06246,-10.84955 -0.399613,-11.50153 -0.815964,-1.5779 -2.160126,-1.70618 -4.796201,-0.45773 -1.706689,0.8083 -1.990629,0.8599 -4.731624,0.8599 -2.769025,0 -3.006099,-0.0444 -4.704193,-0.88034 -2.275247,-1.1201 -4.137724,-2.98257 -5.257825,-5.25782 -0.836725,-1.69963 -0.880334,-1.93334 -0.880334,-4.71792 0,-2.854339 0.02563,-2.981556 0.99639,-4.945757 2.783489,-5.632007 9.071407,-7.724312 14.948469,-4.974103 2.203739,1.031254 2.8098,1.015863 3.925348,-0.09968 l 0.899583,-0.899584 V 80.988957 70.114582 h 8.169686 c 7.263968,0 8.20979,0.04832 8.531422,0.435865 0.273461,0.3295 0.340794,1.217289 0.275921,3.638021 -0.100104,3.735331 0.152116,5.024766 1.557925,7.964655 1.268573,2.652896 2.881891,4.49295 5.438682,6.203036 2.878272,1.925106 5.023364,2.533696 8.834692,2.506514 2.58055,-0.0184 3.31364,-0.123808 4.82641,-0.693954 5.44711,-2.052942 9.26533,-6.397431 10.41637,-11.852054 0.31302,-1.483338 0.37556,-2.698395 0.24772,-4.812284 -0.15987,-2.643492 -0.13679,-2.84623 0.35393,-3.108854 0.33751,-0.180627 3.41267,-0.280945 8.61214,-0.280945 h 8.08718 l -0.009,65.343398 -65.343368,0.009 z"
         id="path3"
         sodipodi:nodetypes="sssscssssscccssssssssssscccs" /><path
         style="fill:#fe5263;stroke-width:1.06681;stroke:none"
         d="M 2.7270507e-6,135.46704 -0.00871412,70.131275 11.131248,70.056783 22.27121,69.982291 22.909564,69.239932 c 0.872522,-1.014678 0.815236,-2.132041 -0.221542,-4.321164 -0.807985,-1.706035 -0.859895,-1.991342 -0.859895,-4.72606 0,-2.74177 0.04942,-3.011409 0.852859,-4.653291 1.113124,-2.274744 3.054001,-4.223377 5.301241,-5.322426 1.689658,-0.826353 1.937102,-0.872199 4.707538,-0.872199 2.847909,0 2.976695,0.02598 4.940197,0.99639 3.30551,1.633672 5.353263,4.398821 6.047393,8.165997 0.400096,2.171402 0.05041,4.381179 -1.07329,6.782472 -0.900613,1.924567 -0.961377,2.422277 -0.422865,3.463643 0.688368,1.331158 0.964326,1.361288 12.467708,1.361288 h 10.703175 v 8.169686 c 0,7.263968 -0.04832,8.20979 -0.435865,8.531422 -0.3295,0.273461 -1.217289,0.340794 -3.638021,0.275921 -3.754747,-0.100624 -5.011218,0.148578 -8.070268,1.600617 -1.714971,0.814045 -2.652564,1.486662 -4.107146,2.946414 -6.335387,6.357901 -6.149467,16.314858 0.420683,22.529678 3.332429,3.1522 7.387576,4.55417 12.299293,4.2522 2.257813,-0.13882 2.753784,-0.0978 3.108854,0.2573 0.368691,0.3687 0.42247,1.46416 0.42247,8.60566 v 8.18318 z"
         id="path2"
         sodipodi:nodetypes="ccccssssssssssscssssssssscc" /><path
         style="fill:#fbed85;stroke-width:1.06681;stroke:none"
         d="M 2.7270507e-6,2.7270507e-6 65.352083,-0.00868558 V 10.539509 c 0,6.839288 0.09999,10.835034 0.28438,11.363969 0.342084,0.981304 1.273567,1.64444 2.309884,1.64444 0.418439,0 1.464425,-0.350805 2.324413,-0.779567 6.771734,-3.376165 14.920773,0.934701 15.98383,8.455494 0.785873,5.5598 -2.792726,10.856909 -8.3348,12.337326 -2.593566,0.692802 -5.031622,0.390227 -7.944243,-0.98592 -1.962495,-0.927234 -2.854021,-0.883447 -3.862633,0.189712 l -0.62854,0.668764 -0.07719,10.959178 -0.07719,10.959178 -8.124896,-0.0041 c -4.585203,-0.0023 -8.295584,-0.111982 -8.516689,-0.251792 -0.316617,-0.200205 -0.393204,-0.999025 -0.399142,-4.163136 -0.0067,-3.577738 -0.06865,-4.083805 -0.718211,-5.868242 C 45.146297,48.403634 38.526934,44.017889 31.717147,44.5606 c -4.027814,0.320999 -7.251398,1.833036 -10.157223,4.76429 -3.579711,3.611038 -4.845003,7.605872 -4.381445,13.833277 0.171177,2.299572 0.599072,2.193868 -8.8808487,2.193868 h -8.30632188 z"
         id="path7"
         sodipodi:nodetypes="ccssssssssccccssssssscc" /><path
         style="fill:#259867;stroke-width:1.06693717;stroke:none;stroke-dasharray:none"
         d="m 99.347584,85.793043 c -4.176563,-1.49083 -6.886839,-4.657973 -7.583428,-8.861756 -0.362491,-2.187564 -0.0024,-4.401866 1.098444,-6.754273 0.871106,-1.861513 0.94799,-2.358339 0.512769,-3.313546 C 92.694852,65.369896 92.547288,65.352083 80.85553,65.352083 H 70.114582 v -8.169686 c 0,-7.263968 0.04832,-8.20979 0.435865,-8.531422 0.3295,-0.273461 1.217289,-0.340794 3.638021,-0.275921 3.756663,0.100675 5.010948,-0.148424 8.077718,-1.604223 1.74125,-0.826574 2.642229,-1.476344 4.112641,-2.965969 6.324545,-6.407181 6.134057,-16.294032 -0.433628,-22.506514 -3.332429,-3.1522 -7.387576,-4.554174 -12.299293,-4.252199 -2.257813,0.138811 -2.753784,0.09776 -3.108854,-0.257309 -0.368691,-0.368691 -0.42247,-1.464153 -0.42247,-8.6056532 V 2.7270507e-6 L 135.45795,-0.00868558 135.47537,65.352083 h -10.73313 c -9.05576,0 -10.85389,0.06245 -11.50589,0.399613 -1.5779,0.815964 -1.70618,2.160126 -0.45773,4.796201 0.80799,1.706035 0.8599,1.991342 0.8599,4.72606 0,2.756273 -0.0463,3.005098 -0.87425,4.698107 -1.12141,2.293096 -2.99867,4.165672 -5.27556,5.262412 -1.56098,0.751896 -2.10645,0.871935 -4.30123,0.946557 -1.91323,0.06505 -2.83033,-0.02762 -3.839916,-0.38799 z"
         id="path1"
         sodipodi:nodetypes="csssscssssssssscccssssssscc" /></g></g></svg>
