<?xml version="1.0" encoding="UTF-8" standalone="no"?>
<!-- Created with Inkscape (http://www.inkscape.org/) -->

<svg
   width="512"
   height="512"
   viewBox="0 0 135.46666 135.46667"
   version="1.1"
   id="svg1"
   inkscape:version="1.3.2 (091e20e, 2023-11-25, custom)"
   sodipodi:docname="icon.svg"
   xml:space="preserve"
   inkscape:export-filename="icon192.png"
   inkscape:export-xdpi="36"
   inkscape:export-ydpi="36"
   xmlns:inkscape="http://www.inkscape.org/namespaces/inkscape"
   xmlns:sodipodi="http://sodipodi.sourceforge.net/DTD/sodipodi-0.dtd"
   xmlns:xlink="http://www.w3.org/1999/xlink"
   xmlns="http://www.w3.org/2000/svg"
   xmlns:svg="http://www.w3.org/2000/svg"><sodipodi:namedview
     id="namedview1"
     pagecolor="#ffffff"
     bordercolor="#000000"
     borderopacity="0.25"
     inkscape:showpageshadow="2"
     inkscape:pageopacity="0.0"
     inkscape:pagecheckerboard="0"
     inkscape:deskcolor="#d1d1d1"
     inkscape:document-units="px"
     inkscape:zoom="0.35355339"
     inkscape:cx="-376.18081"
     inkscape:cy="436.99199"
     inkscape:window-width="1920"
     inkscape:window-height="1001"
     inkscape:window-x="-9"
     inkscape:window-y="-9"
     inkscape:window-maximized="1"
     inkscape:current-layer="layer1" /><defs
     id="defs1"><filter
       inkscape:collect="always"
       style="color-interpolation-filters:sRGB"
       id="filter2"
       x="-0.070747965"
       y="-0.077342546"
       width="1.1414959"
       height="1.1546851"><feGaussianBlur
         inkscape:collect="always"
         stdDeviation="1.826016"
         id="feGaussianBlur2" /></filter></defs><g
     inkscape:label="Camada 1"
     inkscape:groupmode="layer"
     id="layer1"><rect
       style="fill:#ecf0f1;stroke-width:0.264584;stroke-linejoin:round;fill-opacity:1"
       id="rect1"
       width="135.46666"
       height="135.46666"
       x="9.8028204e-07"
       y="-6.7656333e-07" /><path
       id="rect1-6"
       style="fill:none;stroke:#bdc3c7;stroke-width:1.5875;stroke-linejoin:round;stroke-dasharray:none;stroke-opacity:1"
       d="m 17.837126,26.332429 v 3.638019 h 2.933156 l -0.02283,81.748872 c -0.0015,8.7252 7.626236,15.75008 17.098699,15.75008 9.472463,0 17.100234,-7.02488 17.098694,-15.75008 l -0.0228,-81.748872 h 2.93316 v -3.638019 h -2.93318 -34.151918 z"
       sodipodi:nodetypes="ccccsccccccc" /><use
       x="0"
       y="0"
       xlink:href="#rect1-6"
       id="use1"
       transform="translate(59.774332)"
       style="stroke:#bdc3c7;stroke-opacity:1" /><path
       style="opacity:0.65602;fill:#3498db;stroke-width:1.5875;stroke-linejoin:round;stroke-dasharray:none;filter:url(#filter2);fill-opacity:1"
       d="M 88.860948,78.363244 C 75.624426,77.36356 61.619813,77.590853 49.518927,83.713351 c -3.950523,2.032998 -7.832678,4.518652 -10.260338,8.352655 -3.751545,5.547544 -8.627307,10.348634 -11.444265,16.508084 -0.561266,1.48885 -0.988483,2.10732 -0.881156,0.0593 -0.05274,-5.88441 0.479401,-11.787366 2.101996,-17.462121 1.769445,-7.074895 5.064159,-13.926331 10.492004,-18.923441 4.964408,-4.848671 10.700047,-8.80779 16.03231,-13.223707 5.830961,-3.987637 13.026127,-5.146034 19.941194,-5.484497 0.631047,-0.06725 1.260576,-0.15065 1.885739,-0.260282"
       id="path2" /><path
       style="fill:#e74c3c;stroke-width:1.5875;stroke-linejoin:round;stroke-dasharray:none;fill-opacity:1"
       d="M 77.584346,7.2035117 84.591354,31.264273 60.41683,31.169259 66.979275,25.260155 C 53.716592,17.444105 45.983414,29.534274 37.892658,40.337162 l -6.671243,-3.735895 c 9.23734,-16.559994 18.221833,-32.0497326 43.1883,-20.2973 z"
       id="path3"
       sodipodi:nodetypes="cccccccc" /><circle
       style="opacity:1;fill:#3498db;fill-opacity:1;stroke:none;stroke-width:1.85487;stroke-linejoin:round;stroke-dasharray:none;stroke-opacity:1"
       id="path4"
       cx="86.996239"
       cy="62.300529"
       r="20.76684" /><circle
       style="opacity:1;fill:#3498db;fill-opacity:1;stroke:none;stroke-width:1.38697;stroke-linejoin:round;stroke-dasharray:none;stroke-opacity:1"
       id="circle4"
       cx="97.660294"
       cy="108.88561"
       r="15.528358" /></g></svg>
